<svg width="48" height="60" viewBox="0 0 16 20" fill="none" xmlns="http://www.w3.org/2000/svg">
<g opacity="1">
<path fill-rule="evenodd" clip-rule="evenodd" d="M3.83831 12.8538C4.92148 12.597 6.28927 12.4845 8 12.4845C9.71073 12.4845 11.0785 12.597 12.1617 12.8538C13.252 13.1122 14.15 13.5394 14.806 14.2392C15.4695 14.9469 15.7515 15.7904 15.8798 16.612C16.0002 17.382 16.0001 18.2484 16 19.0852L16 19.1511H13.3333C13.3333 18.2304 13.33 17.5667 13.2451 17.0236C13.1652 16.5119 13.0305 16.2443 12.8606 16.0631C12.6833 15.8739 12.3314 15.6345 11.5466 15.4485C10.7548 15.2608 9.6226 15.1511 8 15.1511C6.3774 15.1511 5.24519 15.2608 4.45337 15.4485C3.66864 15.6345 3.31669 15.8739 3.13939 16.0631C2.96947 16.2443 2.83482 16.5119 2.75486 17.0236C2.67001 17.5667 2.66667 18.2304 2.66667 19.1511H8.82958e-06C8.82958e-06 19.1292 6.60434e-06 19.1072 4.3791e-06 19.0852C-7.88024e-05 18.2484 -0.000165158 17.382 0.120159 16.612C0.248528 15.7904 0.530549 14.9469 1.19396 14.2392C1.84999 13.5394 2.74804 13.1122 3.83831 12.8538Z" fill="#FFFFFF"/>
<path fill-rule="evenodd" clip-rule="evenodd" d="M8 8.48448C9.71822 8.48448 11.1111 7.09158 11.1111 5.37337C11.1111 3.65515 9.71822 2.26226 8 2.26226C6.28178 2.26226 4.88889 3.65515 4.88889 5.37337C4.88889 7.09158 6.28178 8.48448 8 8.48448ZM8 10.7067C10.9455 10.7067 13.3333 8.31888 13.3333 5.37337C13.3333 2.42785 10.9455 0.0400391 8 0.0400391C5.05448 0.0400391 2.66667 2.42785 2.66667 5.37337C2.66667 8.31888 5.05448 10.7067 8 10.7067Z" fill="#FFFFFF"/>
</g>
</svg>
