<svg width="63" height="63" viewBox="0 0 21 21" fill="none" xmlns="http://www.w3.org/2000/svg">
<g opacity="0.2">
<path fill-rule="evenodd" clip-rule="evenodd" d="M4.61157 20.1965H16.4298C16.4298 18.5397 15.0866 17.1965 13.4298 17.1965H12.0207V15.2646C13.4564 14.9703 14.8811 14.2456 16.0401 13.0349C17.0759 11.9527 17.8137 10.5757 18.2029 8.95521C18.7187 8.63026 20.4947 7.46163 20.0661 7.03625C19.5661 6.54004 20.0661 3 20.0661 3H18.5207V0H1.61157V6.1393C1.61157 9.29045 2.92958 11.689 4.77664 13.2511C6.06584 14.3413 7.58202 15.0011 9.02066 15.273V17.1965H7.61157C5.95472 17.1965 4.61157 18.5397 4.61157 20.1965ZM4.61157 3V6.1393C4.61157 10.624 8.24794 12.4179 10.5207 12.4179C12.7934 12.4179 15.5207 10.624 15.5207 6.1393V3H4.61157Z" fill="#1B2939"/>
<path d="M2.06612 3H0.0661158C0.0661158 3 0.566117 6.54004 0.0661158 7.03625C-0.433885 7.53245 2.06612 9.04004 2.06612 9.04004V3Z" fill="#1B2939"/>
</g>
</svg>
