<svg width="90" height="90" viewBox="0 0 30 30" fill="none" xmlns="http://www.w3.org/2000/svg">
<path d="M15 0C13.0302 0 11.0796 0.387987 9.25975 1.14181C7.43986 1.89563 5.78628 3.00052 4.3934 4.3934C1.58035 7.20645 0 11.0218 0 15C0 18.9783 1.58035 22.7936 4.3934 25.6066C5.78628 26.9995 7.43986 28.1044 9.25975 28.8582C11.0796 29.612 13.0302 30 15 30C18.9782 30 22.7936 28.4197 25.6066 25.6066C28.4196 22.7936 30 18.9783 30 15C30 13.0302 29.612 11.0796 28.8582 9.25975C28.1044 7.43987 26.9995 5.78628 25.6066 4.3934C24.2137 3.00052 22.5601 1.89563 20.7402 1.14181C18.9204 0.387987 16.9698 0 15 0ZM15 1.5C17.64 1.5 20.1 2.295 22.17 3.615L21.75 4.5H16.5H15L12.42 3.24L12.945 1.695C13.62 1.575 14.295 1.5 15 1.5ZM11.295 2.07L10.785 3.615L6.945 5.535L5.07 5.91C6.75 4.095 8.88 2.76 11.295 2.07ZM16.5 6H21L25.035 11.385L23.16 15.24L19.215 16.17L14.295 10.41L16.5 6ZM6.24 6.99L7.5 12L5.67 16.59L1.83 17.91C1.62 16.965 1.5 16.005 1.5 15C1.5 12.15 2.385 9.54 3.885 7.365L6.24 6.99ZM27.84 10.83C28.275 12.135 28.5 13.545 28.5 15C28.5 17.16 27.945 19.185 27.045 21H25.5L24.24 15.99L26.49 11.49L27.84 10.83ZM9 12H13.5L17.715 16.92L15 21L10.26 22.17L6.795 17.535L9 12ZM15 22.5L19.5 25.5L18.195 28.08C17.16 28.32 16.095 28.5 15 28.5C12.375 28.5 9.945 27.75 7.875 26.445L9.615 23.865L15 22.5ZM25.5 22.5H26.25C24.75 24.75 22.5 26.505 19.965 27.51L21 25.5L25.5 22.5Z" fill="#FFFFFF"/>
</svg>
