<svg width="93" height="36" viewBox="0 0 31 12" fill="none" xmlns="http://www.w3.org/2000/svg">
<path d="M5.632 11.424C6.816 11.424 7.76 11.136 8.464 10.544C9.168 9.952 9.52 9.184 9.52 8.24C9.52 7.424 9.296 6.768 8.848 6.24C8.4 5.712 7.872 5.376 7.248 5.248C8.016 4.928 8.656 4.16 8.656 3.024C8.656 1.232 7.312 0.224 5.264 0.224H0V11.424H5.632ZM2.304 6.512H5.2C6.336 6.512 7.024 7.04 7.024 7.984C7.024 8.928 6.336 9.44 5.2 9.44H2.304V6.512ZM2.304 2.144H4.896C5.856 2.144 6.432 2.608 6.432 3.392C6.432 4.16 5.856 4.608 4.896 4.608H2.304V2.144Z" fill="#FFFFFF"/>
<path d="M16.8988 11.648C18.1147 11.648 19.1707 11.376 20.0828 10.832V8.512C19.2508 9.168 18.2267 9.488 17.0107 9.488C15.9067 9.488 14.9948 9.152 14.2747 8.464C13.5547 7.776 13.1867 6.896 13.1867 5.824C13.1867 4.752 13.5388 3.888 14.2428 3.2C14.9628 2.512 15.8428 2.16 16.9148 2.16C18.0188 2.16 18.9948 2.448 19.8588 3.024V0.704C18.9788 0.24 18.0028 0 16.8988 0C15.1548 0 13.6987 0.544001 12.5468 1.632C11.4107 2.72 10.8347 4.112 10.8347 5.824C10.8347 7.52 11.4107 8.912 12.5627 10.016C13.7148 11.104 15.1548 11.648 16.8988 11.648Z" fill="#FFFFFF"/>
<path d="M30.4469 11.424V9.36H24.3509V6.48H29.1189V4.448H24.3509V2.288H30.2709V0.224H22.0469V11.424H30.4469Z" fill="#FFFFFF"/>
</svg>
