<svg width="90" height="90" viewBox="0 0 30 30" fill="none" xmlns="http://www.w3.org/2000/svg">
<path d="M15 0C18.75 0 22.125 1.35 24.75 3.6C21.54 6.345 19.5 10.44 19.5 15C19.5 19.56 21.54 23.655 24.75 26.4C22.125 28.65 18.75 30 15 30C11.25 30 7.875 28.65 5.25 26.4C8.46 23.655 10.5 19.56 10.5 15C10.5 10.44 8.46 6.345 5.25 3.6C7.875 1.35 11.25 0 15 0ZM30 15C30 18.48 28.815 21.675 26.82 24.225C24.18 22.02 22.5 18.705 22.5 15C22.5 11.295 24.18 7.98 26.82 5.775C28.815 8.325 30 11.52 30 15ZM0 15C0 11.52 1.185 8.325 3.18 5.775C5.82 7.98 7.5 11.295 7.5 15C7.5 18.705 5.82 22.02 3.18 24.225C1.185 21.675 0 18.48 0 15Z" fill="#FFFFFF"/>
</svg>
