<svg width="66" height="96" viewBox="0 0 22 32" fill="none" xmlns="http://www.w3.org/2000/svg">
<path d="M0.51 19.945C1.41 19.615 2.34 19.45 3.33 19.45C5.34 19.45 7.095 20.08 8.595 21.34L3.885 26.05C2.295 24.25 1.17 22.195 0.51 19.945ZM20.34 12.7C23.295 14.905 26.49 15.445 29.91 14.32C29.955 14.635 30 15.205 30 16C30 17.545 29.625 19.27 28.92 21.175C28.215 23.065 27.345 24.595 26.325 25.75L16.83 16.285L20.34 12.7ZM10.155 22.96C11.745 25.255 12.075 27.76 11.13 30.49C9 29.875 7.095 28.915 5.505 27.595L10.155 22.96ZM15.285 17.83L24.75 27.325C21.495 30.175 17.67 31.375 13.32 30.91C13.635 29.92 13.8 28.84 13.8 27.67C13.8 26.74 13.59 25.645 13.17 24.4C12.75 23.155 12.255 22.135 11.7 21.34L15.285 17.83ZM10.215 19.75C8.82 18.505 7.2 17.725 5.37 17.365C3.54 17.02 1.785 17.125 0.0899999 17.695C0.0449999 17.365 0 16.795 0 16C0 14.455 0.375 12.73 1.08 10.825C1.785 8.93499 2.655 7.40499 3.675 6.24999L13.665 16.285L10.215 19.75ZM20.34 9.59499C18.33 7.11999 17.865 4.41999 18.945 1.50999C19.875 1.74999 20.94 2.19999 22.14 2.88999C23.325 3.56499 24.3 4.23999 25.05 4.88499L20.34 9.59499ZM29.49 12.07C28.59 12.385 27.66 12.55 26.67 12.55C25.035 12.55 23.46 12.07 21.96 11.08L26.595 6.50499C27.915 8.15499 28.875 9.99999 29.49 12.07ZM15.285 14.665L5.25 4.67499C8.505 1.82499 12.33 0.624993 16.695 1.08999C16.365 2.07999 16.2 3.15999 16.2 4.32999C16.2 5.40999 16.44 6.62499 16.935 7.98999C17.43 9.33999 18 10.42 18.75 11.215L15.285 14.665Z" fill="#FFFFFF"/>
</svg>
